# Blender 3.5.0
# www.blender.org
mtllib boostFire.mtl
o å††éŒ
v 0.000000 0.800000 -0.161403
v -0.156072 0.784628 -0.161403
v -0.306147 0.739104 -0.161403
v -0.444456 0.665176 -0.161403
v -0.565685 0.565686 -0.161403
v -0.665176 0.444456 -0.161403
v -0.739104 0.306147 -0.161403
v -0.784628 0.156072 -0.161403
v -0.800000 0.000000 -0.161403
v -0.784628 -0.156072 -0.161403
v -0.739104 -0.306147 -0.161403
v -0.665176 -0.444456 -0.161403
v -0.565685 -0.565685 -0.161403
v -0.444456 -0.665176 -0.161403
v -0.306147 -0.739104 -0.161403
v -0.156072 -0.784628 -0.161403
v 0.000000 -0.800000 -0.161403
v 0.156072 -0.784628 -0.161403
v 0.306147 -0.739104 -0.161403
v 0.444456 -0.665176 -0.161403
v 0.565685 -0.565685 -0.161403
v 0.665176 -0.444456 -0.161403
v 0.739104 -0.306147 -0.161403
v 0.784628 -0.156072 -0.161403
v 0.800000 0.000000 -0.161403
v 0.784628 0.156072 -0.161403
v 0.739104 0.306147 -0.161403
v 0.665176 0.444456 -0.161403
v 0.565685 0.565686 -0.161403
v 0.444456 0.665176 -0.161403
v 0.306147 0.739104 -0.161403
v 0.156072 0.784628 -0.161403
v 0.000000 -0.000000 -2.000000
v 0.000000 0.700000 0.629400
v -0.136563 0.686550 0.629400
v -0.267878 0.646716 0.629400
v -0.388899 0.582029 0.629400
v -0.494975 0.494975 0.629400
v -0.582029 0.388899 0.629400
v -0.646716 0.267878 0.629400
v -0.686550 0.136563 0.629400
v -0.700000 0.000000 0.629400
v -0.686550 -0.136563 0.629400
v -0.646716 -0.267878 0.629400
v -0.582029 -0.388899 0.629400
v -0.494975 -0.494975 0.629400
v -0.388899 -0.582029 0.629400
v -0.267878 -0.646716 0.629400
v -0.136563 -0.686550 0.629400
v 0.000000 -0.700000 0.629400
v 0.136563 -0.686550 0.629400
v 0.267878 -0.646716 0.629400
v 0.388899 -0.582029 0.629400
v 0.494975 -0.494975 0.629400
v 0.582029 -0.388899 0.629400
v 0.646716 -0.267878 0.629400
v 0.686550 -0.136563 0.629400
v 0.700000 0.000000 0.629400
v 0.686550 0.136563 0.629400
v 0.646716 0.267878 0.629400
v 0.582029 0.388899 0.629400
v 0.494975 0.494975 0.629400
v 0.388899 0.582029 0.629400
v 0.267878 0.646716 0.629400
v 0.136563 0.686550 0.629400
vn -0.0899 0.9132 -0.3974
vn -0.2664 0.8781 -0.3974
vn -0.4326 0.8093 -0.3974
vn -0.5822 0.7094 -0.3974
vn -0.7094 0.5822 -0.3974
vn -0.8093 0.4326 -0.3974
vn -0.8781 0.2664 -0.3974
vn -0.9132 0.0899 -0.3974
vn -0.9132 -0.0899 -0.3974
vn -0.8781 -0.2664 -0.3974
vn -0.8093 -0.4326 -0.3974
vn -0.7094 -0.5822 -0.3974
vn -0.5822 -0.7094 -0.3974
vn -0.4326 -0.8093 -0.3974
vn -0.2664 -0.8781 -0.3974
vn -0.0899 -0.9132 -0.3974
vn 0.0899 -0.9132 -0.3974
vn 0.2664 -0.8781 -0.3974
vn 0.4326 -0.8093 -0.3974
vn 0.5822 -0.7094 -0.3974
vn 0.7094 -0.5822 -0.3974
vn 0.8093 -0.4326 -0.3974
vn 0.8781 -0.2664 -0.3974
vn 0.9132 -0.0899 -0.3974
vn 0.9132 0.0899 -0.3974
vn 0.8781 0.2664 -0.3974
vn 0.8093 0.4326 -0.3974
vn 0.7094 0.5822 -0.3974
vn 0.5822 0.7094 -0.3974
vn 0.4326 0.8093 -0.3974
vn 0.0973 0.9874 0.1249
vn 0.2664 0.8781 -0.3974
vn 0.0899 0.9132 -0.3974
vn -0.0000 -0.0000 1.0000
vn -0.7670 -0.6294 0.1249
vn 0.4677 -0.8750 0.1249
vn 0.9495 0.2880 0.1249
vn -0.8750 0.4677 0.1249
vn -0.6294 -0.7670 0.1249
vn 0.6294 -0.7670 0.1249
vn 0.8750 0.4677 0.1249
vn -0.9495 0.2880 0.1249
vn -0.0973 0.9874 0.1249
vn -0.4677 -0.8750 0.1249
vn 0.7670 -0.6294 0.1249
vn 0.7670 0.6294 0.1249
vn -0.9874 0.0972 0.1249
vn -0.2880 -0.9495 0.1249
vn 0.8750 -0.4677 0.1249
vn -0.2880 0.9495 0.1249
vn 0.6294 0.7670 0.1249
vn -0.9874 -0.0973 0.1249
vn -0.0973 -0.9874 0.1249
vn 0.9495 -0.2880 0.1249
vn -0.4677 0.8750 0.1249
vn 0.4677 0.8750 0.1249
vn -0.9495 -0.2880 0.1249
vn 0.0973 -0.9874 0.1249
vn 0.9874 -0.0972 0.1249
vn -0.6294 0.7670 0.1249
vn 0.2880 0.9495 0.1249
vn -0.8750 -0.4677 0.1249
vn 0.2880 -0.9495 0.1249
vn 0.9874 0.0973 0.1249
vn -0.7670 0.6294 0.1249
vn -0.9874 0.0973 0.1249
vn 0.9874 -0.0973 0.1249
vt 0.519136 0.420927
vt 0.259568 0.157703
vt 0.547346 0.421281
vt 0.578557 0.420340
vt 0.611570 0.418141
vt 0.645115 0.414767
vt 0.677905 0.410349
vt 0.708678 0.405056
vt 0.259568 0.215344
vt 0.736252 0.399091
vt 0.237171 0.206231
vt 0.759568 0.392685
vt 0.210493 0.197054
vt 0.180560 0.188167
vt 0.148521 0.179910
vt 0.115608 0.172601
vt 0.083085 0.166521
vt 0.052204 0.161903
vt 0.024149 0.158926
vt 0.759568 0.420927
vt 0.000000 0.157703
vt 0.787778 0.421281
vt 0.818989 0.420340
vt 0.852002 0.418141
vt 0.885547 0.414767
vt 0.918337 0.410349
vt 0.949110 0.405056
vt 0.519136 0.215344
vt 0.976684 0.399091
vt 0.496739 0.206231
vt 1.000000 0.392685
vt 0.470061 0.197054
vt 0.440128 0.188167
vt 0.408089 0.179910
vt 0.375176 0.172601
vt 0.342654 0.166521
vt 0.311772 0.161903
vt 0.283717 0.158926
vt 0.586458 0.000000
vt 0.041328 0.584857
vt 0.826890 0.000000
vt 0.300896 0.584857
vt 0.311612 0.000000
vt 0.519136 0.718787
vt 0.549190 0.583465
vt 0.524892 0.689853
vt 0.573874 0.583775
vt 0.536181 0.662598
vt 0.601183 0.582952
vt 0.552571 0.638069
vt 0.630069 0.581027
vt 0.573430 0.617209
vt 0.659422 0.578075
vt 0.597959 0.600820
vt 0.688113 0.574209
vt 0.625214 0.589530
vt 0.715039 0.569578
vt 0.654148 0.583775
vt 0.739167 0.564359
vt 0.683648 0.583775
vt 0.759568 0.558753
vt 0.259568 0.042462
vt 0.712582 0.589531
vt 0.236225 0.034432
vt 0.739837 0.600820
vt 0.210033 0.026656
vt 0.764365 0.617209
vt 0.181999 0.019431
vt 0.785225 0.638069
vt 0.153200 0.013036
vt 0.801615 0.662598
vt 0.124743 0.007716
vt 0.812904 0.689853
vt 0.097722 0.003675
vt 0.818659 0.718787
vt 0.073174 0.001070
vt 0.818659 0.748287
vt 0.052043 0.000000
vt 0.789622 0.583466
vt 0.812904 0.777221
vt 0.814306 0.583775
vt 0.801615 0.804475
vt 0.841615 0.582952
vt 0.785225 0.829004
vt 0.870501 0.581027
vt 0.764365 0.849864
vt 0.899854 0.578075
vt 0.739837 0.866254
vt 0.928544 0.574209
vt 0.712582 0.877543
vt 0.955471 0.569578
vt 0.683648 0.883298
vt 0.979599 0.564359
vt 0.654148 0.883298
vt 1.000000 0.558753
vt 0.519136 0.042462
vt 0.625214 0.877543
vt 0.495793 0.034432
vt 0.597959 0.866254
vt 0.469601 0.026656
vt 0.573430 0.849864
vt 0.441567 0.019431
vt 0.552570 0.829004
vt 0.412768 0.013036
vt 0.536181 0.804475
vt 0.384311 0.007716
vt 0.524892 0.777221
vt 0.357290 0.003675
vt 0.519136 0.748287
vt 0.332742 0.001070
s 0
f 1/1/1 33/39/1 2/3/1
f 2/3/2 33/39/2 3/4/2
f 3/4/3 33/39/3 4/5/3
f 4/5/4 33/39/4 5/6/4
f 5/6/5 33/39/5 6/7/5
f 6/7/6 33/39/6 7/8/6
f 7/8/7 33/39/7 8/10/7
f 8/9/8 33/40/8 9/11/8
f 9/11/9 33/40/9 10/13/9
f 10/13/10 33/40/10 11/14/10
f 11/14/11 33/40/11 12/15/11
f 12/15/12 33/40/12 13/16/12
f 13/16/13 33/40/13 14/17/13
f 14/17/14 33/40/14 15/18/14
f 15/18/15 33/40/15 16/19/15
f 16/19/16 33/40/16 17/21/16
f 17/20/17 33/41/17 18/22/17
f 18/22/18 33/41/18 19/23/18
f 19/23/19 33/41/19 20/24/19
f 20/24/20 33/41/20 21/25/20
f 21/25/21 33/41/21 22/26/21
f 22/26/22 33/41/22 23/27/22
f 23/27/23 33/41/23 24/29/23
f 24/28/24 33/42/24 25/30/24
f 25/30/25 33/42/25 26/32/25
f 26/32/26 33/42/26 27/33/26
f 27/33/27 33/42/27 28/34/27
f 28/34/28 33/42/28 29/35/28
f 29/35/29 33/42/29 30/36/29
f 30/36/30 33/42/30 31/37/30
f 1/2/31 65/110/31 32/38/31
f 31/37/32 33/42/32 32/38/32
f 32/38/33 33/42/33 1/2/33
f 53/84/34 57/92/34 65/109/34
f 13/16/35 45/68/35 12/15/35
f 20/24/36 52/83/36 19/23/36
f 27/33/37 59/98/37 26/32/37
f 7/8/38 39/55/38 6/7/38
f 14/17/39 46/70/39 13/16/39
f 21/25/40 53/85/40 20/24/40
f 28/34/41 60/100/41 27/33/41
f 8/10/42 40/57/42 7/8/42
f 2/3/43 34/45/43 1/1/43
f 15/18/44 47/72/44 14/17/44
f 22/26/45 54/87/45 21/25/45
f 29/35/46 61/102/46 28/34/46
f 9/12/47 41/59/47 8/10/47
f 16/19/48 48/74/48 15/18/48
f 23/27/49 55/89/49 22/26/49
f 3/4/50 35/47/50 2/3/50
f 30/36/51 62/104/51 29/35/51
f 10/13/52 42/62/52 9/11/52
f 17/21/53 49/76/53 16/19/53
f 24/29/54 56/91/54 23/27/54
f 4/5/55 36/49/55 3/4/55
f 31/37/56 63/106/56 30/36/56
f 11/14/57 43/64/57 10/13/57
f 18/22/58 50/79/58 17/20/58
f 25/31/59 57/93/59 24/29/59
f 5/6/60 37/51/60 4/5/60
f 32/38/61 64/108/61 31/37/61
f 12/15/62 44/66/62 11/14/62
f 19/23/63 51/81/63 18/22/63
f 26/32/64 58/96/64 25/30/64
f 6/7/65 38/53/65 5/6/65
f 1/2/31 34/43/31 65/110/31
f 65/109/34 34/44/34 35/46/34
f 35/46/34 36/48/34 37/50/34
f 37/50/34 38/52/34 41/58/34
f 38/52/34 39/54/34 41/58/34
f 39/54/34 40/56/34 41/58/34
f 41/58/34 42/60/34 43/63/34
f 43/63/34 44/65/34 45/67/34
f 45/67/34 46/69/34 49/75/34
f 46/69/34 47/71/34 49/75/34
f 47/71/34 48/73/34 49/75/34
f 49/75/34 50/77/34 51/80/34
f 51/80/34 52/82/34 53/84/34
f 53/84/34 54/86/34 57/92/34
f 54/86/34 55/88/34 57/92/34
f 55/88/34 56/90/34 57/92/34
f 57/92/34 58/94/34 59/97/34
f 59/97/34 60/99/34 61/101/34
f 61/101/34 62/103/34 65/109/34
f 62/103/34 63/105/34 65/109/34
f 63/105/34 64/107/34 65/109/34
f 65/109/34 35/46/34 37/50/34
f 41/58/34 43/63/34 49/75/34
f 43/63/34 45/67/34 49/75/34
f 49/75/34 51/80/34 53/84/34
f 57/92/34 59/97/34 65/109/34
f 59/97/34 61/101/34 65/109/34
f 65/109/34 37/50/34 49/75/34
f 37/50/34 41/58/34 49/75/34
f 49/75/34 53/84/34 65/109/34
f 13/16/35 46/70/35 45/68/35
f 20/24/36 53/85/36 52/83/36
f 27/33/37 60/100/37 59/98/37
f 7/8/38 40/57/38 39/55/38
f 14/17/39 47/72/39 46/70/39
f 21/25/40 54/87/40 53/85/40
f 28/34/41 61/102/41 60/100/41
f 8/10/42 41/59/42 40/57/42
f 2/3/43 35/47/43 34/45/43
f 15/18/44 48/74/44 47/72/44
f 22/26/45 55/89/45 54/87/45
f 29/35/46 62/104/46 61/102/46
f 9/12/66 42/61/66 41/59/66
f 16/19/48 49/76/48 48/74/48
f 23/27/49 56/91/49 55/89/49
f 3/4/50 36/49/50 35/47/50
f 30/36/51 63/106/51 62/104/51
f 10/13/52 43/64/52 42/62/52
f 17/21/53 50/78/53 49/76/53
f 24/29/54 57/93/54 56/91/54
f 4/5/55 37/51/55 36/49/55
f 31/37/56 64/108/56 63/106/56
f 11/14/57 44/66/57 43/64/57
f 18/22/58 51/81/58 50/79/58
f 25/31/67 58/95/67 57/93/67
f 5/6/60 38/53/60 37/51/60
f 32/38/61 65/110/61 64/108/61
f 12/15/62 45/68/62 44/66/62
f 19/23/63 52/83/63 51/81/63
f 26/32/64 59/98/64 58/96/64
f 6/7/65 39/55/65 38/53/65
