# Blender 3.5.0
# www.blender.org
mtllib Rock1.mtl
o Rock
v 0.523697 -0.412448 -1.178164
v 0.500396 -0.664992 0.908975
v -0.506445 0.350756 1.013446
v -0.785341 0.542563 0.072508
v 0.002372 0.831491 -0.150173
v -0.435884 -0.596017 -1.262424
v -1.009496 -0.623703 -0.196062
v 0.902296 -0.633624 -0.456886
v -0.600219 -0.620509 0.841531
v -1.068558 -0.398326 -0.744491
v -0.901900 -0.172445 0.763373
v -0.678066 0.185395 -1.110426
v 1.061383 -0.163627 -0.326255
v 1.072526 0.118616 0.400511
v 0.300295 -0.229858 1.296485
v 0.089962 0.148263 -1.301073
v 0.763145 0.513310 -0.419732
v 0.699597 0.500341 0.751280
v 0.070240 0.528251 1.097573
vn -0.4909 -0.8232 -0.2854
vn -0.0060 -0.9996 -0.0292
vn 0.1114 -0.1298 -0.9853
vn 0.9296 -0.3483 0.1210
vn -0.2734 0.9312 0.2412
vn -0.3194 0.9055 0.2793
vn 0.1660 0.9603 0.2243
vn 0.3952 0.9181 0.0316
vn 0.7359 0.6754 0.0474
vn 0.1819 0.8516 -0.4917
vn -0.0862 0.8538 -0.5134
vn -0.4018 0.8659 -0.2979
vn -0.8215 0.4598 0.3372
vn -0.1992 0.1917 0.9610
vn 0.4629 0.3537 0.8128
vn 0.9112 0.3792 -0.1612
vn 0.6598 0.3667 -0.6559
vn -0.8686 0.4471 -0.2138
vn -0.4072 -0.1247 0.9048
vn -0.4073 -0.1162 0.9059
vn -0.0722 -0.6816 0.7281
vn 0.7341 0.1000 0.6716
vn 0.7786 -0.1779 0.6018
vn 0.8516 -0.4661 0.2399
vn 0.7788 0.2646 -0.5688
vn 0.8553 -0.1518 -0.4955
vn -0.2341 0.1152 -0.9654
vn -0.6420 -0.0502 -0.7651
vn -0.9707 0.2288 0.0730
vn -0.9940 0.0050 0.1091
vn -0.8106 -0.4897 0.3212
vn -0.0416 -0.9989 0.0195
vn -0.0121 -0.9996 -0.0265
vn 0.2059 -0.9000 -0.3841
vt 0.278595 0.767767
vt 0.736588 0.483970
vt 0.318939 0.000190
vt 0.984104 0.000000
vt 0.643086 0.545338
vt 0.342060 0.430082
vt 0.746539 0.412265
vt 0.043334 0.867517
vt 0.867639 0.255002
vt 0.746539 0.207493
vt 0.000000 0.673904
vt 0.575424 0.198110
vt 0.233877 0.585218
vt 0.120676 0.000000
vt 0.233878 0.593457
vt 0.018410 0.224870
vt 0.643086 0.832528
vt 0.643086 0.628203
vt 0.405062 0.146590
vt 0.780246 0.073360
vt 0.233878 0.813108
vt 0.116635 0.430082
vt 0.000000 0.109218
vt 0.265465 0.430082
vt 0.180420 0.484983
vt 0.746539 0.179819
vt 0.162506 0.798503
vt 0.664447 0.000000
vt 0.035105 0.430082
vt 0.390619 0.521512
vt 0.540077 0.821003
vt 0.721333 0.695916
vt 0.405062 0.393638
vt 0.741609 0.834956
vt 0.470463 0.687294
vt 1.000000 0.089869
vt 0.558617 0.454349
vt 0.503315 0.008628
vt 0.870445 0.454349
vt 0.390619 0.683667
vt 0.415068 0.202302
vt 0.870445 0.692491
vt 0.492819 0.424714
vt 0.405062 0.587690
vt 0.635454 0.454349
vt 0.989867 0.255002
vt 0.421691 0.467188
s 0
usemtl マテリアル
f 10/23/1 6/14/1 7/16/1
f 6/14/2 2/6/2 7/16/2
f 1/1/3 6/13/3 16/40/3
f 8/17/4 13/31/4 14/35/4
f 4/10/5 19/45/5 5/12/5
f 4/10/6 3/7/6 19/45/6
f 19/45/7 18/43/7 5/12/7
f 18/43/8 17/41/8 5/12/8
f 18/43/9 14/33/9 17/41/9
f 17/41/10 16/38/10 5/12/10
f 16/38/11 12/28/11 5/12/11
f 5/12/12 12/28/12 4/10/12
f 11/27/13 3/8/13 4/11/13
f 15/36/14 19/46/14 3/9/14
f 15/37/15 18/44/15 19/47/15
f 13/32/16 17/42/16 14/34/16
f 1/2/17 16/39/17 17/42/17
f 10/25/18 4/11/18 12/29/18
f 11/26/19 15/36/19 3/9/19
f 11/26/20 9/20/20 15/36/20
f 9/20/21 2/4/21 15/36/21
f 15/37/22 14/35/22 18/44/22
f 15/37/23 2/5/23 14/35/23
f 2/5/24 8/17/24 14/35/24
f 13/32/25 1/2/25 17/42/25
f 13/32/26 8/18/26 1/2/26
f 16/40/27 6/13/27 12/30/27
f 6/13/28 10/24/28 12/30/28
f 10/25/29 11/27/29 4/11/29
f 10/25/30 7/15/30 11/27/30
f 7/15/31 9/21/31 11/27/31
f 7/16/32 2/6/32 9/22/32
f 2/6/33 6/14/33 8/19/33
f 6/14/34 1/3/34 8/19/34
